<?xml version="1.0" encoding="utf-8"?>
<svg viewBox="0 0 45 45" xmlns="http://www.w3.org/2000/svg">
  <path d="M 22.492 13.5 C 17.524 13.5 13.5 17.532 13.5 22.5 C 13.5 27.468 17.524 31.5 22.492 31.5 C 27.468 31.5 31.5 27.468 31.5 22.5 C 31.5 17.532 27.468 13.5 22.492 13.5 Z M 28.728 18.9 L 26.074 18.9 C 25.786 17.776 25.372 16.696 24.832 15.696 C 26.488 16.264 27.864 17.416 28.728 18.9 Z M 22.5 15.336 C 23.248 16.416 23.832 17.614 24.22 18.9 L 20.782 18.9 C 21.168 17.614 21.754 16.416 22.5 15.336 Z M 15.534 24.3 C 15.39 23.724 15.3 23.122 15.3 22.5 C 15.3 21.88 15.39 21.276 15.534 20.7 L 18.576 20.7 C 18.504 21.294 18.45 21.888 18.45 22.5 C 18.45 23.112 18.504 23.706 18.576 24.3 L 15.534 24.3 Z M 16.272 26.1 L 18.928 26.1 C 19.216 27.226 19.63 28.306 20.17 29.304 C 18.514 28.738 17.136 27.594 16.272 26.1 Z M 18.928 18.9 L 16.272 18.9 C 17.136 17.406 18.514 16.264 20.17 15.696 C 19.63 16.696 19.216 17.776 18.928 18.9 Z M 22.5 29.664 C 21.754 28.584 21.168 27.388 20.782 26.1 L 24.22 26.1 C 23.832 27.388 23.248 28.584 22.5 29.664 Z M 24.606 24.3 L 20.394 24.3 C 20.314 23.706 20.25 23.112 20.25 22.5 C 20.25 21.888 20.314 21.286 20.394 20.7 L 24.606 20.7 C 24.688 21.286 24.75 21.888 24.75 22.5 C 24.75 23.112 24.688 23.706 24.606 24.3 Z M 24.832 29.304 C 25.372 28.306 25.786 27.226 26.074 26.1 L 28.728 26.1 C 27.864 27.586 26.488 28.738 24.832 29.304 Z M 26.424 24.3 C 26.496 23.706 26.55 23.112 26.55 22.5 C 26.55 21.888 26.496 21.294 26.424 20.7 L 29.466 20.7 C 29.61 21.276 29.7 21.88 29.7 22.5 C 29.7 23.122 29.61 23.724 29.466 24.3 L 26.424 24.3 Z" style="fill: rgb(255, 255, 255);"/>
</svg>