<?xml version="1.0" encoding="utf-8"?>
<svg viewBox="0 0 45 45" xmlns="http://www.w3.org/2000/svg">
  <path d="M 30.214 15 L 17.714 15 C 17.14 15 16.69 15.292 16.39 15.733 L 11 22.61 L 16.39 29.258 C 16.69 29.7 17.14 30 17.714 30 L 30.214 30 C 31.131 30 31.881 29.25 31.881 28.333 L 31.881 16.667 C 31.881 15.75 31.131 15 30.214 15 Z M 27.715 25.492 L 26.539 26.666 L 23.548 23.675 L 20.556 26.666 L 19.381 25.492 L 22.373 22.5 L 19.381 19.508 L 20.556 18.334 L 23.548 21.325 L 26.539 18.334 L 27.715 19.508 L 24.722 22.5 L 27.715 25.492 Z" style="fill: rgb(255, 255, 255);"/>
</svg>