<?xml version="1.0" encoding="utf-8"?>
<svg viewBox="0 0 45 45" xmlns="http://www.w3.org/2000/svg">
  <rect x="30" y="20" width="8" height="5" style="fill: rgb(255, 255, 255);"/>
  <path d="M 40.66 36.404 L 47.16 43.404 L 34.16 43.404 L 40.66 36.404 Z" style="fill: rgb(255, 255, 255);" transform="matrix(0, -1, 1, 0, -12.394732, 63.16)" shape="triangle 34.16 36.404 13 7 0.5 0 1@67f17ab9"/>
  <rect x="19" y="31" width="8" height="1.976" style="fill: rgb(255, 255, 255);"/>
  <rect x="19" y="12.006" width="8" height="1.976" style="fill: rgb(255, 255, 255);"/>
  <rect x="25.043" y="28" width="1.957" height="4" style="fill: rgb(255, 255, 255);"/>
  <rect x="25.043" y="12.892" width="1.957" height="4" style="fill: rgb(255, 255, 255);"/>
  <path d="M 22.712 14.512 L 24.091 15.864 L 21.333 15.864 L 22.712 14.512 Z" style="fill: rgb(255, 255, 255);" transform="matrix(0.707107, 0.707107, 0.707107, -0.707107, -1.252461, 22.226623)" shape="triangle 21.333 14.512 2.758 1.352 0.5 0 1@a16bb0f9"/>
  <path d="M 22.712 14.512 L 24.091 15.864 L 21.333 15.864 L 22.712 14.512 Z" style="fill: rgb(255, 255, 255);" transform="matrix(0.707107, -0.707107, 0.707107, 0.707107, -1.252461, 22.590044)" shape="triangle 21.333 14.512 2.758 1.352 0.5 0 1@a16bb0f9"/>
  <rect x="20" y="10" width="1" height="25" style="fill: rgb(255, 255, 255);"/>
  <polygon style="fill: rgb(255, 255, 255);" points="10.313 32.503 20.276 34.994 20.276 31.297 10.313 31.18"/>
  <polygon style="fill: rgb(255, 255, 255);" points="10.313 12.491 20.276 10 20.276 13.697 10.313 13.814"/>
  <rect x="10.313" y="12.892" width="6.937" height="19.108" style="fill: rgb(255, 255, 255);"/>
  <rect x="16.31" y="12.892" width="3.966" height="7.957" style="fill: rgb(255, 255, 255);"/>
  <rect x="16.31" y="24.234" width="3.966" height="7.766" style="fill: rgb(255, 255, 255);"/>
</svg>
