<?xml version="1.0" encoding="utf-8"?>
<svg viewBox="0 0 45 45" xmlns="http://www.w3.org/2000/svg">
  <path d="M 32.214 30 L 19.714 30 C 19.14 30 18.69 29.708 18.39 29.267 L 13 22.39 L 18.39 15.742 C 18.69 15.3 19.14 15 19.714 15 L 32.214 15 C 33.131 15 33.881 15.75 33.881 16.667 L 33.881 28.333 C 33.881 29.25 33.131 30 32.214 30 Z M 29.715 19.508 L 28.539 18.334 L 25.548 21.325 L 22.556 18.334 L 21.381 19.508 L 24.373 22.5 L 21.381 25.492 L 22.556 26.666 L 25.548 23.675 L 28.539 26.666 L 29.715 25.492 L 26.722 22.5 L 29.715 19.508 Z" style="fill: rgb(255, 255, 255);" transform="matrix(-1, 0, 0, -1, 46.881001, 45)"/>
</svg>