<?xml version="1.0" encoding="utf-8"?>
<svg viewBox="0 0 20 19" xmlns="http://www.w3.org/2000/svg">
  <path style="fill: rgb(216, 216, 216); stroke: rgb(0, 0, 0);" d="M 35.362 21.026"/>
  <path d="M 7.758 5.358 C 7.977 4.883 8.1 4.361 8.1 3.8 C 8.1 1.701 6.4 0 4.3 0 C 2.201 0 0.5 1.701 0.5 3.8 C 0.5 5.9 2.201 7.6 4.3 7.6 C 4.861 7.6 5.383 7.477 5.858 7.258 L 8.1 9.5 L 5.858 11.742 C 5.383 11.524 4.861 11.4 4.3 11.4 C 2.201 11.4 0.5 13.101 0.5 15.2 C 0.5 17.3 2.201 19 4.3 19 C 6.4 19 8.1 17.3 8.1 15.2 C 8.1 14.64 7.977 14.117 7.758 13.642 L 10 11.4 L 16.65 18.05 L 19.5 18.05 L 19.5 17.1 L 7.758 5.358 Z M 4.3 5.7 C 3.255 5.7 2.4 4.855 2.4 3.8 C 2.4 2.746 3.255 1.9 4.3 1.9 C 5.345 1.9 6.2 2.746 6.2 3.8 C 6.2 4.855 5.345 5.7 4.3 5.7 Z M 4.3 17.1 C 3.255 17.1 2.4 16.255 2.4 15.2 C 2.4 14.146 3.255 13.3 4.3 13.3 C 5.345 13.3 6.2 14.146 6.2 15.2 C 6.2 16.255 5.345 17.1 4.3 17.1 Z M 10 9.975 C 9.734 9.975 9.525 9.766 9.525 9.5 C 9.525 9.234 9.734 9.025 10 9.025 C 10.266 9.025 10.475 9.234 10.475 9.5 C 10.475 9.766 10.266 9.975 10 9.975 Z M 16.65 0.95 L 10.95 6.65 L 12.85 8.55 L 19.5 1.9 L 19.5 0.95 Z" style="stroke-width: 0.5px; fill: rgb(220, 213, 242); stroke: rgb(111, 96, 126);"/>
</svg>