<?xml version="1.0" encoding="utf-8"?>
<svg viewBox="0 0 53 53" xmlns="http://www.w3.org/2000/svg">
  <defs>
    <linearGradient gradientUnits="userSpaceOnUse" x1="26.5" y1="2" x2="26.5" y2="51" id="gradient-0">
      <stop offset="0" style="stop-color: rgb(0, 255, 255);"/>
      <stop offset="1" style="stop-color: rgb(0, 0, 255);"/>
    </linearGradient>
  </defs>
  <circle style="fill: url(#gradient-0);" cx="26.5" cy="26.5" r="24.5"/>
  <circle style="fill: rgb(255, 255, 255);" cx="26.5" cy="38.522" r="3"/>
  <path style="fill: rgb(255, 255, 255); stroke: rgb(255, 255, 255);" d="M 24.791 29.166 L 24.833 32.436 L 28.229 32.436 L 28.229 29.207 C 28.243 27.488 28.755 26.164 29.067 25.727 C 30.363 23.915 31.577 23.031 32.756 21.2 C 33.686 19.755 33.821 18.778 33.721 16.882 C 33.622 15.005 32.871 13.508 31.101 12.029 C 29.343 10.561 26.921 10.057 24.162 11.012 C 23.125 11.371 21.754 12.466 20.85 13.612 C 20.722 13.775 21.463 14.208 23.239 15.288 C 23.485 15.438 24.506 13.969 25.588 13.736 C 26.389 13.564 28.002 13.336 29.157 14.304 C 30.129 15.119 30.495 15.608 30.534 17.929 C 30.566 19.808 29.196 20.689 27.851 22.332 C 27.049 23.311 26.435 23.908 25.713 24.973 C 24.536 26.708 24.816 27.994 24.791 29.166 Z"/>
  <path style="fill: rgb(255, 255, 255); stroke: rgb(255, 255, 255);"/>
</svg>
