<?xml version="1.0" encoding="utf-8"?>
<svg viewBox="0 0 21 21" xmlns="http://www.w3.org/2000/svg">
  <circle style="stroke: rgb(47, 91, 0); fill: rgb(159, 193, 122);" cx="10.5" cy="10.5" r="10"/>
  <line style="stroke-linecap: round; stroke: rgb(0, 0, 0);" x1="14.5" y1="6.523" x2="6.5" y2="6.523" transform="matrix(0, -1, 1, 0, 3.977, 17.023)"/>
  <rect x="7" y="10" width="12" height="7.5" style="fill: rgb(255, 255, 255); stroke-width: 0.5px; stroke: rgb(0, 0, 0);"/>
  <line style="stroke-linecap: round; stroke: rgb(0, 0, 0);" x1="8.474" y1="16.102" x2="9.032" y2="11.499"/>
  <line style="stroke-linecap: round; stroke: rgb(0, 0, 0);" x1="9.032" y1="11.499" x2="10.885" y2="11.499"/>
  <line style="stroke-linecap: round; stroke: rgb(0, 0, 0);" x1="9.032" y1="14.149" x2="10.706" y2="14.184"/>
  <line style="stroke-linecap: round; stroke: rgb(0, 0, 0);" x1="10.706" y1="14.184" x2="11.458" y2="13.469"/>
  <line style="stroke-linecap: round; stroke: rgb(0, 0, 0);" x1="11.438" y1="13.528" x2="11.498" y2="12.391"/>
  <line style="stroke-linecap: round; stroke: rgb(0, 0, 0);" x1="11.498" y1="12.411" x2="10.845" y2="11.479"/>
  <line style="stroke-linecap: round; stroke: rgb(0, 0, 0);" x1="12.614" y1="16.103" x2="12.893" y2="13.983"/>
  <line style="stroke-linecap: round; stroke: rgb(0, 0, 0);" x1="13.036" y1="12.446" x2="13.036" y2="12.476" transform="matrix(-1, 0, 0, -1, 26.072001, 24.922)"/>
  <line style="stroke-linecap: round; stroke: rgb(0, 0, 0);" x1="14.488" y1="16.123" x2="15.046" y2="11.519"/>
  <line style="stroke-linecap: round; stroke: rgb(0, 0, 0);" x1="15.046" y1="11.519" x2="16.898" y2="11.519"/>
  <line style="stroke-linecap: round; stroke: rgb(0, 0, 0);" x1="15.046" y1="14.17" x2="16.72" y2="14.205"/>
  <line style="stroke-linecap: round; stroke: rgb(0, 0, 0);" x1="16.72" y1="14.205" x2="17.471" y2="13.489"/>
  <line style="stroke-linecap: round; stroke: rgb(0, 0, 0);" x1="17.451" y1="13.548" x2="17.511" y2="12.411"/>
  <line style="stroke-linecap: round; stroke: rgb(0, 0, 0);" x1="17.511" y1="12.431" x2="16.858" y2="11.499"/>
</svg>