<?xml version="1.0" encoding="utf-8"?>
<svg viewBox="0 0 21 21" xmlns="http://www.w3.org/2000/svg">
  <circle style="stroke: rgb(180, 166, 19); fill: rgb(216, 203, 126);" cx="10.5" cy="10.5" r="10"/>
  <line style="stroke-linecap: round; stroke: rgb(0, 0, 0);" x1="14.5" y1="6.523" x2="6.5" y2="6.523" transform="matrix(0, -1, 1, 0, 3.977, 17.023)"/>
  <line style="stroke-linecap: round; stroke: rgb(0, 0, 0);" x1="14.367390073000223" y1="14.71162054660692" x2="10.499999761581421" y2="10.52300071716309"/>
  <line style="stroke-width: 2px; stroke: rgb(0, 0, 0);" x1="13.998" y1="9.523" x2="13.998" y2="2.523"/>
  <line style="stroke: rgb(0, 0, 0);" x1="13.998" y1="5.922" x2="16.55" y2="5.922"/>
  <line style="stroke: rgb(0, 0, 0);" x1="13" y1="3.006" x2="16.55" y2="3.006"/>
  <path style="" transform="matrix(-0.066797, 0, 0, 0.05323, 45.987881, -8.943808)" d="M 443 289.014 A 37.014 37.014 0 1 1 443 214.986 L 443 234.035 A 17.965 17.965 0 1 0 443 269.965 Z" shape="pie 443 252 17.965 37.014 180 360 1@9c61b414"/>
  <polygon style="" points="15.808 6.021 17.412 9.551 19.316 9.579 17.374 5.474"/>
</svg>
