<?xml version="1.0" encoding="utf-8"?>
<svg viewBox="0 0 20 20" xmlns="http://www.w3.org/2000/svg">
  <defs>
    <grid x="-0.2" y="-0.2" width="100" height="100"/>
  </defs>
  <path d="M 23.224 5.916 L 26.752 11.796 L 19.696 11.796 L 23.224 5.916 Z" style="fill: rgb(255, 255, 0);" transform="matrix(0, 1, -1, 0, 19.28698, -16.695999)" shape="triangle 19.696 5.916 7.056 5.88 0.5 0 1@b2e0842f"/>
  <line style="fill: rgb(255, 255, 255); stroke-width: 1.2px; stroke: rgb(255, 240, 0);" x1="7.714" y1="6.528" x2="4.186" y2="6.528"/>
  <line style="fill: rgb(255, 255, 255); stroke-width: 1.2px; stroke: rgb(255, 240, 0);" x1="4.186" y1="14.559" x2="15.946" y2="14.558"/>
  <path style="fill: rgb(255, 255, 0);" transform="matrix(0.071641, 0, 0, 0.074212, -11.390926, -7.776847)" d="M 221 309 A 62 62 0 1 1 221 185 L 221 201.04 A 45.96 45.96 0 1 0 221 292.96 Z" shape="pie 221 247 45.96 62 180 360 1@29a501ce"/>
  <path style="fill: rgb(255, 255, 0);" transform="matrix(-0.070781, 0, 0, 0.07397, 31.254185, -7.732032)" d="M 221 309 A 62 62 0 1 1 221 185 L 221 201.04 A 45.96 45.96 0 1 0 221 292.96 Z" shape="pie 221 247 45.96 62 180 360 1@29a501ce"/>
  <line style="fill: rgb(255, 255, 255); stroke-linecap: round; stroke-width: 1.2px; stroke: rgb(255, 240, 0);" x1="15.946" y1="6.528" x2="14.342" y2="6.528"/>
</svg>