<?xml version="1.0" encoding="utf-8"?>
<svg viewBox="0 0 21 21" xmlns="http://www.w3.org/2000/svg">
  <circle style="fill: rgb(216, 216, 216);" cx="10.5" cy="10.5" r="10"/>
  <line style="stroke-width: 1.2px; stroke: rgb(203, 75, 75);" x1="10.5" y1="20" x2="10.5" y2="1"/>
  <rect x="7" y="0.5" width="7" height="20" style="fill: rgb(212, 186, 32);" rx="1.32" ry="1.32"/>
  <line style="stroke-linecap: round; stroke: rgb(0, 0, 0);" x1="14.367390073000223" y1="14.71162054660692" x2="10.499999761581421" y2="10.52300071716309"/>
  <line style="stroke-linecap: round; stroke: rgb(0, 0, 0);" x1="14.5" y1="6.523" x2="6.5" y2="6.523" transform="matrix(0, -1, 1, 0, 3.977, 17.023)"/>
  <path d="M 10.5 10.5 m -10.5 0 a 10.5 10.5 0 1 0 21 0 a 10.5 10.5 0 1 0 -21 0 Z M 10.5 10.5 m -9.5 0 a 9.5 9.5 0 0 1 19 0 a 9.5 9.5 0 0 1 -19 0 Z" style="fill: rgb(180, 166, 19);" shape="ring 10.5 10.5 9.5 9.5 10.5 10.5 1@fba1c5e5"/>
</svg>